<?xml version="1.0" standalone="no"?>
<!DOCTYPE svg PUBLIC "-//W3C//DTD SVG 20010904//EN"
 "http://www.w3.org/TR/2001/REC-SVG-20010904/DTD/svg10.dtd">
<svg version="1.0" xmlns="http://www.w3.org/2000/svg"
 width="500.000000pt" height="333.000000pt" viewBox="0 0 500.000000 333.000000"
 preserveAspectRatio="xMidYMid meet">

<g transform="translate(0.000000,333.000000) scale(0.100000,-0.100000)"
fill="#000000" stroke="none">
<path d="M0 3324 c0 -4 8 -13 18 -20 16 -13 16 -15 0 -28 -10 -7 -18 -23 -18
-35 0 -22 0 -22 33 3 19 15 45 26 58 26 23 0 22 1 -11 30 -31 27 -80 41 -80
24z"/>
<path d="M88 3323 c7 -3 16 -2 19 1 4 3 -2 6 -13 5 -11 0 -14 -3 -6 -6z"/>
<path d="M420 3320 c8 -5 25 -10 38 -10 12 0 22 -4 22 -10 0 -13 54 -40 82
-40 17 0 19 -3 10 -9 -21 -13 28 -22 138 -25 52 -2 83 -1 68 1 -16 2 -28 8
-28 13 0 11 -75 35 -166 53 -39 8 -80 20 -92 26 -26 14 -94 15 -72 1z"/>
<path d="M753 3323 c-56 -7 -36 -22 28 -22 59 1 60 1 34 15 -15 8 -28 13 -29
12 0 0 -16 -3 -33 -5z"/>
<path d="M1881 3308 c0 -13 -9 -50 -21 -83 -28 -81 -26 -195 5 -195 11 0 27
-5 35 -10 11 -7 3 -10 -30 -10 l-45 -1 60 -20 c48 -17 86 -21 193 -21 126 0
133 1 152 24 18 21 19 32 14 113 -4 54 -12 95 -20 103 -8 7 -14 22 -14 31 0
10 -7 35 -15 55 l-15 36 -150 0 c-149 0 -150 0 -149 -22z m299 -178 c11 -11
20 -24 20 -30 0 -5 10 -11 23 -11 21 -2 21 -2 1 -6 -12 -2 -26 -15 -32 -29
-24 -51 -112 -12 -112 50 0 18 3 36 7 39 14 15 74 6 93 -13z"/>
<path d="M2480 3306 c16 -43 60 -127 141 -268 43 -76 84 -147 91 -160 19 -33
35 -48 51 -48 7 0 45 24 83 54 134 104 236 139 404 140 147 0 273 -34 400
-111 30 -18 57 -33 60 -33 3 0 4 29 2 65 -2 42 0 65 7 65 6 0 11 5 11 11 0 27
36 38 123 39 70 0 87 3 87 15 0 8 -3 15 -7 15 -5 0 -26 25 -48 55 -40 56 -52
67 -41 40 7 -20 -47 -21 -63 -1 -7 8 -21 12 -31 9 -16 -4 -21 1 -26 24 -3 16
-23 48 -44 71 l-39 42 -585 0 -586 0 10 -24z"/>
<path d="M4320 3314 c0 -9 9 -27 20 -41 11 -14 20 -32 20 -41 0 -8 9 -33 19
-56 40 -85 71 -176 71 -209 0 -29 -4 -36 -25 -41 -14 -4 -25 -11 -25 -16 0 -6
-7 -10 -15 -10 -20 0 -20 -59 0 -86 8 -10 15 -26 15 -35 0 -15 40 -59 53 -59
4 0 7 11 7 25 0 43 20 27 21 -17 l2 -43 6 47 c4 26 10 50 13 54 11 11 25 -4
31 -33 3 -16 15 -38 26 -50 12 -12 21 -29 21 -36 0 -8 7 -20 15 -27 16 -14 18
-12 90 51 96 85 122 113 118 129 -3 10 2 20 11 23 11 4 13 1 9 -10 -6 -15 -4
-15 14 -2 11 8 52 43 91 79 51 46 72 72 72 89 0 29 -23 60 -158 214 l-104 117
-209 0 c-184 0 -209 -2 -209 -16z m449 -430 c23 -39 26 -54 11 -54 -5 0 -12
11 -16 25 -3 13 -12 29 -20 36 -8 6 -11 15 -8 20 8 14 10 12 33 -27z"/>
<path d="M1400 3192 c0 -19 27 -38 38 -27 3 3 0 5 -6 5 -7 0 -12 6 -12 14 0 8
-4 18 -10 21 -5 3 -10 -3 -10 -13z"/>
<path d="M1478 3163 c7 -3 16 -2 19 1 4 3 -2 6 -13 5 -11 0 -14 -3 -6 -6z"/>
<path d="M1465 3141 c10 -17 64 -41 59 -26 -3 7 -16 17 -30 24 -30 13 -37 14
-29 2z"/>
<path d="M1610 3094 c-10 -11 -10 -14 1 -14 8 0 20 4 27 9 11 7 11 9 -1 14 -9
3 -21 -1 -27 -9z"/>
<path d="M1658 3063 c7 -3 16 -2 19 1 4 3 -2 6 -13 5 -11 0 -14 -3 -6 -6z"/>
<path d="M1702 3059 c-16 -6 -16 -7 1 -14 9 -4 26 -5 37 -2 11 3 20 1 20 -3 0
-10 38 -1 45 10 6 10 -80 17 -103 9z"/>
<path d="M422 2786 c-9 -20 -8 -25 9 -29 10 -3 17 -1 14 3 -3 5 4 15 15 23 18
13 19 15 5 21 -26 10 -31 8 -43 -18z"/>
<path d="M540 2793 c8 -3 17 -9 20 -12 10 -12 77 -31 110 -31 50 0 25 14 -56
33 -71 17 -103 21 -74 10z"/>
<path d="M1410 2781 c-171 -56 -204 -132 -204 -471 0 -143 4 -219 17 -285 17
-93 15 -135 -9 -135 -8 0 -14 -4 -14 -10 0 -5 -18 -10 -40 -10 -22 0 -40 -4
-40 -10 0 -5 5 -10 10 -10 6 0 10 -4 10 -10 0 -5 -11 -10 -24 -10 -14 0 -28
-4 -31 -10 -3 -5 -19 -10 -34 -10 -31 0 -47 -14 -52 -45 -2 -10 -15 -22 -29
-26 -14 -4 -20 -8 -15 -8 6 -1 -2 -9 -17 -17 -35 -18 -36 -32 -3 -40 35 -9 32
-32 -4 -26 -23 3 -29 0 -34 -19 -3 -13 -2 -28 4 -35 6 -7 12 -42 14 -78 4 -70
10 -90 26 -81 5 3 25 -2 45 -11 l36 -17 -26 -14 c-16 -8 -23 -19 -20 -28 4 -8
1 -15 -5 -15 -6 0 -11 9 -11 20 0 12 -7 20 -16 20 -17 0 -16 -24 2 -100 17
-71 20 -99 13 -94 -5 3 -12 -2 -16 -11 -3 -10 -1 -20 6 -24 18 -12 6 -120 -15
-135 -19 -14 -12 -36 12 -36 10 0 13 -9 10 -32 -2 -18 3 -38 10 -46 19 -19 17
-35 -6 -62 -18 -20 -20 -21 -20 -5 0 10 -3 16 -6 12 -3 -3 -3 -15 1 -27 6 -20
7 -21 20 -3 7 10 17 15 21 11 4 -5 0 -16 -9 -26 -10 -10 -17 -23 -17 -28 0 -5
4 -3 9 5 14 21 26 7 57 -66 15 -38 33 -75 39 -83 7 -8 17 -31 24 -50 7 -19 20
-48 28 -64 9 -16 11 -26 4 -22 -19 12 -12 -12 19 -63 17 -26 35 -63 41 -81 9
-24 14 -29 21 -18 7 9 8 7 3 -8 -3 -13 0 -28 8 -35 7 -8 22 -33 33 -56 10 -24
24 -41 30 -39 7 3 10 -3 7 -13 -2 -9 5 -25 16 -35 12 -11 21 -24 21 -31 0 -17
24 -65 33 -65 13 0 8 30 -7 36 -17 7 -9 54 10 54 8 0 14 7 14 15 0 8 4 15 8
15 14 0 32 -23 32 -42 0 -10 9 -23 20 -30 11 -7 20 -19 20 -26 0 -7 6 -15 14
-18 8 -3 13 -11 10 -18 -11 -28 42 -46 135 -46 87 0 89 0 83 23 -3 12 -12 33
-21 46 -15 24 -22 90 -36 366 l-6 120 20 -25 c42 -51 55 -59 100 -65 89 -12
101 -16 101 -34 0 -19 51 -101 74 -120 8 -7 36 -16 63 -21 26 -5 69 -14 95
-20 55 -13 78 -5 104 39 10 17 27 32 39 35 23 6 49 56 61 116 9 51 11 52 57
24 108 -64 125 -69 242 -69 102 0 114 2 170 30 83 42 131 92 185 191 20 36 31
49 28 33 -2 -14 1 -30 8 -37 7 -6 16 -32 19 -57 4 -25 11 -45 16 -45 5 0 12
-18 15 -40 6 -39 17 -50 29 -30 3 6 14 10 23 9 14 0 14 -2 2 -6 -8 -3 -21 -11
-29 -17 -14 -11 -17 -12 -58 -14 -13 -1 -23 -8 -23 -16 0 -7 -9 -16 -20 -19
-17 -4 -20 -14 -20 -55 0 -34 6 -57 20 -75 23 -29 25 -43 8 -50 -10 -3 -10 -9
0 -26 14 -25 16 -61 2 -61 -6 0 -10 -28 -10 -65 l0 -65 1030 0 1030 0 -1 533
c0 426 -3 523 -12 488 -10 -35 -17 -45 -35 -46 -31 -2 -45 26 -40 82 3 39 2
42 -10 25 -11 -16 -19 -18 -55 -12 -23 5 -46 6 -51 3 -5 -4 -6 -2 -3 3 3 6
-22 21 -56 34 -34 13 -70 30 -79 38 -10 8 -18 11 -18 6 0 -5 -5 -1 -11 9 -5 9
-17 17 -24 17 -11 0 -15 14 -16 53 l-1 52 -14 -32 c-13 -30 -15 -31 -46 -21
-18 5 -43 12 -55 15 -13 3 -23 10 -23 15 0 6 -7 5 -15 -2 -13 -11 -15 -6 -15
38 0 90 81 282 144 341 27 25 26 41 -2 41 -9 0 -30 7 -47 16 -16 9 -59 26 -95
39 -127 44 -172 63 -179 72 -3 5 -42 17 -86 26 -234 48 -280 61 -323 87 -22
13 -32 26 -28 36 4 11 -2 14 -27 12 -43 -3 -54 -12 -128 -106 -43 -55 -88 -89
-76 -58 4 9 2 16 -4 16 -5 0 -13 -8 -16 -17 -4 -10 -17 -29 -30 -43 -13 -14
-23 -29 -23 -33 0 -21 -64 -88 -106 -111 -95 -53 -173 -57 -207 -11 -17 23
-16 25 5 57 13 18 37 48 54 66 20 20 34 47 38 72 10 64 52 148 101 202 25 28
45 54 45 59 0 5 -12 9 -27 8 -59 -4 -358 67 -517 122 -95 33 -127 33 -174 1
-34 -24 -242 -132 -253 -132 -5 0 -31 -11 -58 -24 -27 -13 -61 -26 -76 -30
l-26 -7 28 36 c26 33 156 113 213 130 13 4 49 25 80 46 39 27 63 36 78 32 15
-3 22 -1 22 8 0 19 56 50 78 43 14 -5 15 -4 2 5 -23 17 1 14 83 -10 39 -11 81
-23 92 -26 11 -3 18 -3 15 0 -9 9 -188 67 -209 67 -11 0 -62 -23 -113 -52 -84
-46 -159 -85 -300 -155 -51 -25 -90 -32 -48 -8 16 8 25 22 25 37 0 17 11 29
45 46 24 12 36 22 27 22 -10 0 -27 -6 -38 -12 -17 -10 -23 -10 -26 0 -7 17
-33 15 -33 -3 0 -15 -12 -20 -23 -9 -8 9 11 44 23 44 12 0 80 43 80 50 0 3
-17 6 -37 8 -45 3 -50 8 -35 32 7 11 12 22 12 25 0 11 -75 -7 -109 -27 -18
-10 -34 -18 -35 -16 -1 2 -7 14 -13 28 -36 84 -193 229 -343 318 -154 90 -355
148 -430 123z m772 -493 c-7 -7 -12 -26 -12 -42 0 -17 -4 -38 -9 -45 -6 -10
-8 1 -4 30 5 41 18 69 31 69 3 0 1 -5 -6 -12z m24 -188 c19 -11 27 -11 36 -2
14 14 48 16 48 4 0 -9 -59 -32 -82 -32 -22 0 -58 47 -58 75 0 37 15 39 23 2 5
-21 18 -39 33 -47z m-62 -85 c5 -19 4 -26 -2 -20 -5 6 -13 24 -16 40 -5 19 -4
26 2 20 5 -5 13 -23 16 -40z m841 1 c127 -42 177 -56 204 -56 15 0 37 -7 49
-16 26 -18 23 -42 -11 -114 -25 -51 -44 -74 -70 -83 -13 -5 -16 -13 -12 -27 4
-11 2 -20 -4 -20 -6 0 -11 -7 -11 -15 0 -8 -4 -15 -10 -15 -5 0 -10 -6 -10
-13 0 -41 -115 -190 -177 -228 -39 -25 -57 -23 -198 22 -81 26 -95 33 -96 52
0 14 -3 17 -6 8 -3 -8 1 -28 10 -45 8 -17 20 -58 27 -91 6 -33 21 -91 32 -128
21 -72 19 -89 -11 -70 -34 21 -138 35 -179 24 -20 -6 -48 -11 -62 -11 -22 1
-23 2 -7 11 9 5 17 17 17 24 0 8 5 15 10 15 14 0 45 31 53 53 4 9 13 17 21 17
25 0 30 46 16 139 -20 133 -16 151 30 151 37 0 40 5 30 65 -13 77 -28 110 -44
96 -17 -14 -201 -13 -278 2 -51 10 -58 14 -63 39 -7 32 2 88 15 88 4 0 6 9 3
20 -3 11 -9 20 -14 20 -13 0 -11 24 2 37 8 8 21 0 46 -28 l35 -39 122 0 c127
0 151 6 140 33 -7 20 0 23 151 77 122 43 137 43 250 6z m-1415 -35 c14 -8 49
-39 79 -68 47 -47 53 -56 40 -68 -8 -8 -28 -17 -44 -20 -26 -6 -33 -2 -47 23
-10 17 -18 41 -18 54 0 27 -28 57 -78 82 -18 9 -30 21 -27 26 6 10 57 -5 95
-29z m335 -8 c-39 -95 -45 -193 -17 -295 l19 -66 -23 10 c-19 9 -21 14 -11 29
20 31 -13 82 -63 99 -23 8 -44 20 -47 27 -3 7 -9 13 -15 13 -5 0 -17 8 -26 17
-16 16 -16 16 1 10 11 -4 20 -1 23 8 3 8 32 22 64 31 52 14 58 19 63 47 7 40
24 87 33 87 3 0 3 -8 -1 -17z m-545 -69 c0 -40 -4 -55 -12 -52 -17 6 -22 62
-8 88 17 31 20 25 20 -36z m128 12 c29 -15 92 -82 92 -97 0 -15 -20 -10 -26 6
-7 16 -94 81 -127 95 -20 8 -20 9 6 9 15 1 40 -5 55 -13z m715 -95 c-1 -51 -4
-95 -6 -97 -10 -10 -74 27 -86 48 -7 13 -11 46 -9 74 3 46 5 50 38 61 63 22
65 18 63 -86z m1686 -56 c252 -71 414 -127 487 -168 33 -18 65 -32 71 -30 19
7 23 -41 6 -79 -20 -44 -26 -44 -148 2 -44 17 -109 37 -145 45 -135 32 -489
159 -477 171 2 2 118 -34 258 -80 244 -80 286 -89 296 -59 6 16 -18 25 -297
113 -189 59 -233 76 -225 89 3 6 20 8 38 7 17 -2 24 -1 15 1 -17 4 -26 23 -10
23 4 0 63 -16 131 -35z m387 -36 c24 -6 47 -16 51 -22 4 -7 0 -8 -13 -3 -10 5
-39 14 -64 21 -56 16 -35 19 26 4z m-323 -69 c203 -68 284 -98 262 -99 -5 0
-122 38 -260 84 -137 46 -242 84 -232 85 10 0 113 -32 230 -70z m-158 -27 c19
-10 73 -29 250 -89 39 -13 81 -32 95 -43 14 -10 60 -26 103 -36 42 -10 77 -21
77 -25 0 -3 11 -7 26 -8 14 -1 33 -6 44 -12 13 -7 20 -6 24 3 3 6 3 -1 -1 -18
-3 -16 -9 -37 -14 -45 -7 -13 -8 -13 -9 0 0 12 -39 26 -147 53 -82 21 -152 42
-157 47 -5 5 9 5 30 0 43 -10 46 -9 35 8 -6 10 -469 182 -488 182 -3 0 -2 4 1
9 7 10 98 -8 131 -26z m-2260 -41 c-19 -4 -35 13 -35 37 0 10 8 7 26 -10 22
-20 23 -25 9 -27z m185 13 c0 -8 -7 -15 -16 -15 -14 0 -14 3 -4 15 7 8 14 15
16 15 2 0 4 -7 4 -15z m391 -18 c-8 -8 -11 -7 -11 4 0 9 3 19 7 23 4 4 9 2 11
-4 3 -7 -1 -17 -7 -23z m-438 6 c-7 -2 -19 -2 -25 0 -7 3 -2 5 12 5 14 0 19
-2 13 -5z m2043 -37 c100 -34 206 -78 201 -83 -4 -4 -277 94 -286 103 -10 9
20 2 85 -20z m-1625 -27 c-16 -34 -52 -84 -39 -54 27 66 42 95 49 95 4 0 0
-18 -10 -41z m1366 -3 c4 -5 -2 -5 -14 -2 -23 7 -34 -9 -11 -16 6 -2 -5 -12
-25 -21 -34 -17 -38 -17 -62 -1 -14 9 -25 20 -25 24 0 22 118 36 137 16z m524
-21 c34 -16 34 -16 4 -10 -16 4 -34 11 -39 16 -14 13 -3 11 35 -6z m75 -30
c10 -8 15 -14 9 -14 -5 0 -19 6 -29 14 -11 8 -15 15 -10 15 6 0 19 -7 30 -15z
m-66 -25 c19 -11 30 -19 24 -20 -15 0 -84 29 -84 35 0 10 26 4 60 -15z m-2950
-15 c0 -9 -9 -15 -22 -15 -22 1 -23 1 -4 15 25 19 26 19 26 0z m2718 -15 c74
-30 115 -53 108 -61 -2 -2 8 -5 22 -5 15 -1 54 -14 87 -30 33 -15 74 -28 91
-29 17 -1 52 -10 77 -21 42 -17 47 -22 47 -51 0 -40 -12 -41 -81 -12 -29 13
-54 18 -59 13 -5 -5 -20 -40 -33 -79 -29 -85 -96 -225 -107 -225 -15 0 -50 52
-50 74 0 31 20 49 37 34 20 -16 27 -3 8 15 -8 9 -15 24 -15 34 0 11 -5 24 -11
30 -10 10 0 38 33 85 18 26 -5 47 -32 30 -12 -7 -21 -8 -25 -2 -3 6 -12 10
-20 10 -9 0 -12 -10 -8 -37 4 -33 -1 -44 -31 -78 -21 -24 -31 -42 -24 -46 6
-4 8 -12 4 -18 -4 -7 -13 -4 -24 7 -33 31 -135 117 -143 120 -36 14 71 102
123 102 30 0 35 9 16 28 -9 9 -9 12 0 12 14 0 5 28 -18 55 -21 24 -54 75 -49
75 2 0 37 -13 77 -30z m-1012 -35 c39 -41 84 -55 103 -31 12 15 61 23 61 11 0
-4 -7 -19 -15 -36 -41 -79 -65 -174 -65 -261 0 -49 -4 -88 -9 -88 -14 0 -21
15 -26 49 -2 16 -11 45 -20 64 -9 19 -17 44 -18 56 -1 11 -4 21 -8 21 -4 0 -9
10 -12 23 -52 210 -54 227 -36 227 7 0 27 -16 45 -35z m813 8 c39 -12 53 -22
56 -40 3 -12 7 -33 10 -46 4 -23 -35 -77 -56 -77 -6 0 -34 20 -61 45 -28 25
-54 45 -58 45 -5 0 -12 10 -16 22 -5 17 0 27 22 45 35 27 38 28 103 6z m-479
-11 c0 -4 16 -6 35 -4 32 4 41 -1 76 -38 25 -27 45 -40 55 -36 9 3 25 1 36 -5
16 -8 23 -8 30 2 8 11 9 10 4 -3 -3 -10 -1 -20 4 -23 10 -6 40 -64 40 -77 0
-5 -4 -7 -9 -4 -5 3 -16 -6 -26 -20 -11 -18 -23 -24 -36 -21 -27 7 -34 -10 -9
-23 17 -9 19 -14 9 -26 -6 -8 -20 -14 -31 -14 -31 0 -4 -38 35 -48 36 -10 58
1 39 20 -20 20 -14 57 14 84 20 21 33 25 65 22 21 -2 39 -1 39 1 0 3 -17 23
-37 45 -51 53 -23 35 60 -38 43 -38 66 -65 62 -74 -5 -14 57 -82 75 -82 5 0
10 -10 12 -22 2 -16 12 -24 36 -29 42 -8 65 -29 87 -79 16 -36 17 -42 3 -58
-9 -9 -13 -22 -11 -29 4 -11 -43 -112 -69 -146 -13 -18 -17 -18 -50 -4 -42 17
-211 131 -278 187 -25 20 -76 58 -115 85 -38 26 -83 61 -100 77 -16 16 -38 36
-48 45 -10 10 -15 23 -13 30 3 7 -1 13 -9 13 -20 0 -28 35 -13 59 7 12 16 21
19 21 10 0 21 -40 23 -77 1 -37 10 -42 25 -15 9 14 10 14 11 2 0 -9 -4 -21
-10 -28 -5 -7 -3 -6 6 1 17 15 21 43 10 69 -6 13 -3 15 13 11 17 -4 20 0 19
36 0 28 -5 41 -14 41 -8 0 -14 -4 -14 -9 0 -13 -59 7 -84 28 -14 12 -20 13
-23 4 -3 -7 -9 -13 -13 -13 -5 0 -2 21 6 48 8 26 17 56 19 67 3 11 9 21 15 23
5 2 10 10 10 18 0 8 5 14 10 14 6 0 10 -4 10 -8z m204 -41 c31 -34 3 -24 -30
10 -21 23 -23 29 -9 21 11 -5 29 -20 39 -31z m-2144 -126 c0 -2 -7 -5 -15 -9
-9 -3 -15 0 -15 9 0 9 6 12 15 9 8 -4 15 -7 15 -9z m527 -34 c23 -22 63 -54
88 -71 25 -17 45 -34 45 -38 0 -4 -18 -24 -40 -44 -38 -36 -40 -37 -50 -18 -6
12 -16 17 -22 14 -7 -5 -9 -2 -5 9 8 20 -25 85 -41 79 -7 -2 -12 5 -12 15 0
11 -7 28 -15 39 -18 24 -19 54 -2 54 6 0 31 -18 54 -39z m1378 19 c3 -5 1 -10
-4 -10 -6 0 -11 5 -11 10 0 6 2 10 4 10 3 0 8 -4 11 -10z m-704 -59 c-28 -13
-33 -13 -41 -1 -8 13 -13 12 -39 -3 -19 -11 -32 -14 -36 -7 -4 6 7 15 25 21
17 6 28 14 25 17 -3 3 5 11 17 18 19 10 27 9 52 -9 l29 -21 -32 -15z m689 19
c0 -5 -2 -10 -4 -10 -3 0 -8 5 -11 10 -3 6 -1 10 4 10 6 0 11 -4 11 -10z
m1637 -37 c2 -6 -3 -13 -12 -16 -10 -5 -15 0 -15 14 0 21 21 22 27 2z m-2457
-22 c0 -11 -4 -23 -10 -26 -6 -4 -10 5 -10 19 0 14 5 26 10 26 6 0 10 -9 10
-19z m1461 -82 c69 -56 91 -79 99 -107 13 -47 6 -52 -14 -10 -9 19 -47 60 -84
91 -66 55 -107 97 -96 97 3 0 46 -32 95 -71z m-1425 34 c-10 -10 -19 5 -10 18
6 11 8 11 12 0 2 -7 1 -15 -2 -18z m254 23 c0 -2 -7 -6 -15 -10 -8 -3 -15 -1
-15 4 0 6 7 10 15 10 8 0 15 -2 15 -4z m-65 -23 c-16 -9 -33 -21 -37 -27 -6
-8 -8 -8 -8 0 0 14 40 43 60 43 8 0 2 -7 -15 -16z m166 -17 c33 -14 58 -37
107 -100 29 -37 30 -111 2 -165 -24 -49 -91 -107 -132 -115 -69 -14 -132 -7
-173 20 -36 23 -34 24 15 7 8 -3 1 5 -17 18 -47 35 -73 91 -73 156 0 47 5 62
35 103 59 80 154 110 236 76z m-381 -16 c0 -5 -4 -10 -10 -10 -5 0 -10 5 -10
10 0 6 5 10 10 10 6 0 10 -4 10 -10z m-25 -51 c-10 -15 -25 -10 -19 6 4 8 10
12 15 9 5 -3 7 -10 4 -15z m-511 5 c18 -7 12 -24 -10 -24 -8 0 -14 7 -14 15 0
17 2 18 24 9z m2166 -19 c0 -8 8 -18 17 -23 24 -14 21 -64 -5 -90 -26 -26 -28
-21 -6 14 16 23 15 25 -10 49 -26 24 -34 45 -16 45 5 0 6 7 3 17 -4 11 -3 14
5 9 7 -4 12 -13 12 -21z m-1532 -53 c-6 -29 -13 -50 -16 -47 -2 2 1 27 8 55 7
28 14 49 16 47 3 -2 -1 -27 -8 -55z m-1238 38 c0 -5 -4 -10 -10 -10 -5 0 -10
5 -10 10 0 6 5 10 10 10 6 0 10 -4 10 -10z m2090 -116 c0 -5 -43 16 -50 25 -3
3 -22 17 -42 31 -21 14 -38 28 -38 32 0 4 29 -13 65 -38 36 -25 65 -48 65 -50z
m-1013 64 c-3 -8 -6 -5 -6 6 -1 11 2 17 5 13 3 -3 4 -12 1 -19z m-1103 -45
c-9 -36 -12 -39 -20 -19 -7 20 1 46 16 46 6 0 8 -11 4 -27z m1952 -18 c25 -19
14 -19 -22 0 -16 8 -22 15 -13 15 8 0 24 -7 35 -15z m-21 -33 c-3 -3 -11 0
-18 7 -9 10 -8 11 6 5 10 -3 15 -9 12 -12z m115 -34 c0 -5 5 -8 11 -8 9 0 56
-30 189 -120 14 -9 68 -43 120 -75 52 -33 97 -62 100 -65 3 -3 23 -17 44 -30
22 -13 62 -43 88 -67 27 -24 52 -43 57 -43 5 0 24 -13 44 -28 35 -28 35 -28
14 -45 -35 -29 -65 -20 -58 17 1 5 -4 6 -12 3 -10 -4 -13 2 -12 17 2 13 -1 29
-5 37 -11 17 -36 5 -123 -59 -38 -28 -78 -54 -89 -58 -26 -8 -47 15 -78 86
-24 55 -60 100 -80 100 -6 0 -13 7 -16 15 -4 8 -11 15 -16 15 -22 0 -78 101
-78 140 0 10 -4 20 -9 22 -6 2 -11 22 -12 46 -3 37 -5 41 -23 36 -15 -4 -17
-3 -8 4 10 7 4 15 -24 33 -20 13 -48 31 -61 39 -34 22 -28 32 7 12 16 -9 30
-20 30 -24z m160 5 c0 -7 -39 17 -46 28 -3 6 5 3 20 -6 14 -10 26 -19 26 -22z
m-489 -26 c-10 -9 -11 -8 -5 6 3 10 9 15 12 12 3 -3 0 -11 -7 -18z m544 -12
l30 -25 -37 21 c-21 11 -38 23 -38 25 0 10 17 2 45 -21z m459 10 c-4 -8 -11
-15 -16 -15 -6 0 -5 6 2 15 7 8 14 15 16 15 2 0 1 -7 -2 -15z m-399 -53 c-3
-3 -11 0 -18 7 -9 10 -8 11 6 5 10 -3 15 -9 12 -12z m339 -13 c-9 -11 -19 -17
-21 -15 -8 7 21 45 30 39 4 -3 1 -14 -9 -24z m756 1 c0 -5 -5 -10 -11 -10 -5
0 -7 5 -4 10 3 6 8 10 11 10 2 0 4 -4 4 -10z m-1013 -40 c14 -11 21 -20 16
-20 -6 0 -20 9 -33 20 -13 11 -20 20 -16 20 4 0 19 -9 33 -20z m-2118 -85 c-5
-25 -11 -51 -15 -56 -8 -13 -31 7 -50 43 -15 28 -14 30 23 66 37 36 38 37 44
16 4 -12 3 -43 -2 -69z m982 58 c13 -16 12 -17 -3 -4 -10 7 -18 15 -18 17 0 8
8 3 21 -13z m232 -20 c-7 -2 -21 -2 -30 0 -10 3 -4 5 12 5 17 0 24 -2 18 -5z
m1045 0 c-16 -2 -40 -2 -55 0 -16 2 -3 4 27 4 30 0 43 -2 28 -4z m764 -83 c-2
-16 -6 -30 -8 -30 -2 0 -4 14 -4 30 0 17 4 30 8 30 5 0 7 -13 4 -30z m-452
-22 c0 -12 -28 -9 -35 2 -4 6 -4 18 -1 27 6 14 8 14 21 -3 8 -10 15 -22 15
-26z m424 -92 c-3 -14 -10 -24 -14 -21 -5 3 -3 16 3 29 15 31 20 27 11 -8z
m-471 -36 c38 -24 64 -46 58 -48 -10 -3 -62 28 -89 55 -6 6 -21 15 -32 18 -11
3 -20 11 -20 17 0 12 1 12 83 -42z m377 10 c0 -5 -19 -9 -42 -9 l-43 2 40 7
c22 4 41 8 43 9 1 0 2 -3 2 -9z m-965 -12 c17 -7 25 -19 25 -35 0 -22 -4 -24
-41 -21 -45 3 -67 24 -56 52 7 19 36 21 72 4z m1025 -31 c0 -17 -41 -78 -93
-140 -45 -52 -75 -61 -132 -39 -33 13 -165 98 -165 106 0 2 8 3 18 3 9 0 31
-12 47 -27 42 -38 77 -45 106 -20 13 11 18 19 12 20 -7 0 -13 9 -13 19 0 22
-38 36 -86 32 -18 -1 -34 2 -37 6 -5 8 38 10 96 5 10 -1 36 -20 58 -43 21 -22
44 -37 49 -34 5 3 7 -1 4 -9 -5 -13 -1 -14 35 -7 2 1 -3 8 -10 18 -13 15 -12
15 9 4 15 -8 22 -8 22 -1 0 6 11 26 24 43 13 18 27 42 31 55 7 24 25 30 25 9z
m-220 -213 c35 -23 38 -28 27 -47 -42 -74 -90 -57 -83 29 2 21 4 40 5 42 2 6
14 0 51 -24z"/>
<path d="M2960 1974 c-14 -2 -65 -9 -115 -15 -49 -6 -99 -15 -110 -20 -18 -8
-17 -9 4 -5 14 3 68 10 120 16 95 12 184 28 146 28 -11 -1 -31 -2 -45 -4z"/>
<path d="M3038 1853 c12 -2 30 -2 40 0 9 3 -1 5 -23 4 -22 0 -30 -2 -17 -4z"/>
<path d="M2890 1840 c-15 -5 4 -6 45 -3 39 3 72 7 74 9 8 7 -94 2 -119 -6z"/>
<path d="M2728 1813 c7 -3 16 -2 19 1 4 3 -2 6 -13 5 -11 0 -14 -3 -6 -6z"/>
<path d="M2648 1803 c12 -2 30 -2 40 0 9 3 -1 5 -23 4 -22 0 -30 -2 -17 -4z"/>
<path d="M2930 1722 c-14 -2 -74 -10 -135 -17 -114 -14 -110 -14 143 1 56 4
102 11 102 16 0 8 -54 8 -110 0z"/>
<path d="M4080 1681 c0 -4 19 -12 43 -18 23 -6 50 -14 60 -18 9 -4 17 -3 17 3
0 5 -27 16 -60 25 -33 8 -60 12 -60 8z"/>
<path d="M4230 1639 c0 -5 9 -9 20 -9 11 0 20 2 20 4 0 2 -9 6 -20 9 -11 3
-20 1 -20 -4z"/>
<path d="M3425 1010 c3 -5 17 -10 31 -10 14 0 22 4 19 10 -3 6 -17 10 -31 10
-14 0 -22 -4 -19 -10z"/>
<path d="M3420 965 c0 -10 74 -35 106 -35 49 0 42 17 -8 23 -24 2 -55 7 -70
11 -16 4 -28 4 -28 1z"/>
<path d="M3690 820 c20 -13 33 -13 25 0 -3 6 -14 10 -23 10 -15 0 -15 -2 -2
-10z"/>
<path d="M2305 1160 c3 -5 11 -10 16 -10 6 0 7 5 4 10 -3 6 -11 10 -16 10 -6
0 -7 -4 -4 -10z"/>
<path d="M2445 1010 c-23 -11 -52 -38 -68 -62 -25 -38 -28 -51 -25 -104 4 -66
25 -104 78 -136 54 -32 103 -34 164 -4 47 23 59 35 82 81 22 46 25 63 19 100
-7 50 -48 106 -96 131 -39 20 -107 18 -154 -6z m138 -21 c50 -26 77 -74 77
-135 0 -92 -92 -157 -189 -132 -40 10 -67 39 -90 96 -18 44 -2 99 43 147 30
31 39 35 85 35 29 0 62 -5 74 -11z"/>
<path d="M2493 972 c-8 -5 3 -12 33 -20 36 -10 48 -19 59 -45 19 -46 8 -85
-29 -108 -17 -10 -40 -19 -51 -19 -28 0 -67 29 -61 45 3 8 0 15 -6 17 -6 2
-11 19 -11 36 0 41 -21 36 -25 -6 -9 -85 97 -153 174 -112 13 8 24 19 24 26 0
6 7 14 15 18 10 4 15 20 15 51 0 52 -14 85 -35 85 -8 0 -18 7 -22 15 -10 17
-63 29 -80 17z"/>
<path d="M2450 960 c0 -5 5 -10 10 -10 6 0 10 5 10 10 0 6 -4 10 -10 10 -5 0
-10 -4 -10 -10z"/>
<path d="M2714 2756 c-5 -13 -2 -23 9 -31 9 -7 24 -34 33 -62 l16 -49 61 -12
c34 -6 72 -14 85 -18 13 -4 22 -2 22 4 0 6 -18 13 -40 17 -22 4 -40 11 -40 15
0 11 -50 70 -58 69 -23 -4 -32 4 -32 26 0 15 -6 25 -15 25 -7 0 -18 8 -24 18
-9 16 -10 16 -17 -2z"/>
<path d="M468 2743 c6 -2 18 -2 25 0 6 3 1 5 -13 5 -14 0 -19 -2 -12 -5z"/>
<path d="M2666 2698 c-3 -7 -15 -26 -26 -43 -19 -29 -38 -67 -65 -132 -14 -31
-14 -32 8 -24 26 11 137 77 151 91 6 6 6 18 -1 32 -6 13 -16 38 -23 56 -13 33
-33 42 -44 20z"/>
<path d="M708 2693 c6 -2 18 -2 25 0 6 3 1 5 -13 5 -14 0 -19 -2 -12 -5z"/>
<path d="M4430 2686 c0 -2 7 -17 15 -32 9 -18 15 -23 15 -12 0 9 3 23 6 32 4
12 0 16 -15 16 -12 0 -21 -2 -21 -4z"/>
<path d="M2985 2643 c-11 -3 -24 -9 -29 -14 -6 -5 -19 -9 -30 -10 -20 0 -20
-1 1 -9 26 -11 113 13 113 31 0 9 -21 10 -55 2z"/>
<path d="M0 2402 c0 -106 4 -192 9 -192 11 0 66 -116 76 -160 l8 -35 -21 25
c-12 14 -32 39 -46 55 l-25 30 -1 -97 c0 -87 2 -98 18 -98 9 0 24 -13 33 -29
10 -17 28 -31 46 -35 16 -4 42 -18 57 -31 16 -14 33 -25 37 -25 4 0 47 -48 94
-107 47 -60 92 -116 100 -125 8 -9 35 -43 61 -75 26 -32 50 -56 53 -53 3 3 25
-24 49 -60 46 -70 50 -73 26 -15 -8 20 -14 41 -12 46 4 13 128 -235 128 -256
0 -21 -27 -48 -40 -40 -6 4 -11 -8 -11 -27 -1 -27 -3 -29 -6 -8 -3 14 -11 32
-18 40 -7 8 -18 31 -24 51 -8 25 -21 40 -46 52 l-35 17 0 -25 c0 -31 -4 -31
-43 -1 -28 21 -34 23 -51 11 -10 -8 -16 -20 -14 -27 4 -10 -11 -12 -68 -10
-69 2 -91 -6 -62 -24 7 -4 48 -7 91 -5 72 2 79 0 73 -15 -6 -17 -6 -17 12 -1
10 9 26 17 36 17 9 0 14 4 11 10 -4 6 1 7 12 3 29 -10 81 -71 88 -103 4 -17
11 -32 16 -35 14 -10 11 -77 -3 -72 -7 2 -12 12 -12 21 1 9 -2 16 -7 16 -5 0
-9 -4 -9 -9 0 -13 -35 -20 -54 -9 -23 13 -20 -1 7 -22 12 -11 30 -17 40 -14
13 4 17 -1 17 -20 0 -37 -60 -152 -86 -167 -24 -13 -34 -36 -34 -86 0 -18 -3
-33 -7 -33 -216 -11 -223 -11 -227 2 -43 140 -38 132 -86 148 -25 8 -49 18
-55 21 -5 4 -29 10 -52 14 l-43 7 0 -122 0 -122 437 7 c241 3 440 7 443 7 52
4 78 -4 89 -29 11 -23 10 -29 -3 -39 -20 -14 -20 -43 -1 -68 8 -11 15 -25 15
-32 0 -21 89 -165 153 -247 12 -16 29 -40 37 -55 37 -65 65 -108 77 -115 7 -5
11 -12 8 -18 -4 -5 10 -9 29 -9 l36 0 -20 37 c-11 21 -20 44 -20 51 0 7 -5 10
-10 7 -6 -3 -10 3 -10 14 0 12 -4 21 -10 21 -5 0 -10 9 -10 20 0 11 -4 20 -10
20 -5 0 -10 6 -10 14 0 8 -18 44 -40 80 -22 36 -40 72 -40 79 0 7 -4 17 -9 23
-11 11 -78 145 -116 229 -14 33 -33 74 -41 90 l-15 30 6 -30 c5 -31 -34 44
-167 321 -82 172 -209 441 -230 489 -51 117 -487 970 -520 1017 -10 14 -18 30
-18 35 0 4 -7 17 -15 27 -13 18 -15 -1 -15 -172z m113 -206 c6 -8 10 -8 14 1
3 10 8 10 19 -1 18 -19 64 -109 58 -115 -8 -8 -54 47 -54 63 0 20 -17 30 -23
14 -5 -14 -47 23 -47 41 0 5 -6 12 -12 15 -7 3 -2 3 12 0 14 -4 29 -12 33 -18z
m117 -61 c18 -33 36 -73 41 -90 l9 -30 -20 25 c-53 70 -118 213 -76 170 8 -8
29 -42 46 -75z m634 -1427 c9 -12 16 -28 16 -34 0 -14 -62 -25 -100 -17 -27 5
-28 7 -17 32 15 33 25 41 59 41 17 0 33 -9 42 -22z m179 -285 c19 -38 42 -85
51 -107 14 -33 14 -37 1 -26 -8 7 -15 16 -15 20 0 4 -20 43 -45 86 -43 75 -56
112 -36 100 5 -3 25 -36 44 -73z"/>
<path d="M4488 2523 c7 -3 16 -2 19 1 4 3 -2 6 -13 5 -11 0 -14 -3 -6 -6z"/>
<path d="M3674 2470 c-57 -23 -27 -57 35 -40 43 11 49 18 29 38 -14 14 -34 14
-64 2z"/>
<path d="M3770 2467 c0 -8 3 -17 7 -21 4 -3 8 -25 9 -49 1 -23 7 -54 13 -69
10 -26 15 -28 66 -28 30 0 55 2 55 4 0 22 -30 77 -54 99 -22 20 -27 30 -18 34
10 4 5 11 -15 24 -33 22 -63 25 -63 6z"/>
<path d="M3055 2439 c-4 -6 -5 -13 -2 -16 7 -7 27 6 27 18 0 12 -17 12 -25 -2z"/>
<path d="M3172 2394 c1 -9 13 -19 26 -21 18 -2 23 1 20 14 -2 10 -14 19 -26
21 -18 3 -23 -1 -20 -14z"/>
<path d="M3340 2396 c0 -2 7 -6 15 -10 8 -3 15 -1 15 4 0 6 -7 10 -15 10 -8 0
-15 -2 -15 -4z"/>
<path d="M3316 2362 c-10 -16 19 -32 78 -43 91 -16 110 -7 36 18 -100 33 -108
34 -114 25z"/>
<path d="M3065 2343 c6 -6 36 -20 67 -32 145 -55 167 -65 158 -71 -20 -13 17
-30 101 -49 105 -22 86 -31 -35 -15 -50 6 -93 10 -94 8 -10 -7 50 -34 101 -44
53 -11 79 -24 40 -19 -10 1 -31 0 -48 -1 -28 -2 -28 -3 14 -16 24 -7 49 -18
56 -24 17 -14 81 39 131 109 22 29 45 60 53 68 16 16 15 18 -21 27 -17 4 -28
2 -28 -4 0 -6 -14 -19 -31 -29 -20 -12 -27 -21 -19 -26 6 -4 17 -2 23 4 17 17
26 13 20 -10 -4 -14 -11 -18 -22 -13 -9 3 -36 10 -61 15 -25 5 -81 22 -125 38
-70 26 -189 64 -265 86 -16 5 -21 4 -15 -2z"/>
<path d="M4000 2321 c0 -5 9 -7 20 -4 11 3 20 7 20 9 0 2 -9 4 -20 4 -11 0
-20 -4 -20 -9z"/>
<path d="M4088 2323 c6 -2 18 -2 25 0 6 3 1 5 -13 5 -14 0 -19 -2 -12 -5z"/>
<path d="M3364 2289 c-9 -16 15 -29 51 -28 29 1 28 2 -10 14 -31 10 -36 13
-20 17 15 4 16 6 3 7 -9 0 -20 -4 -24 -10z"/>
<path d="M3050 2283 c30 -11 42 -26 28 -34 -19 -12 -2 -22 23 -14 l23 8 -28
23 c-15 13 -35 24 -44 23 -14 0 -14 -2 -2 -6z"/>
<path d="M3001 2256 c2 -2 18 -6 34 -10 22 -5 26 -4 15 4 -14 9 -59 15 -49 6z"/>
<path d="M4958 1864 c-21 -13 -38 -27 -38 -31 0 -4 5 -2 12 5 19 19 48 14 58
-10 7 -19 9 -16 9 20 1 23 0 42 -1 41 -2 0 -20 -11 -40 -25z"/>
<path d="M863 1684 c-3 -8 -1 -20 6 -27 8 -8 11 -7 11 5 0 9 5 18 12 20 7 3 5
7 -5 11 -11 4 -20 1 -24 -9z"/>
<path d="M52 1625 c6 -14 21 -31 33 -39 18 -12 22 -24 23 -85 1 -52 -3 -75
-15 -86 -14 -15 -14 -17 3 -30 48 -36 58 -10 38 97 -9 46 -16 91 -16 101 1 10
-7 21 -16 24 -9 4 -23 15 -30 25 -19 27 -33 22 -20 -7z"/>
<path d="M888 1483 c7 -3 16 -2 19 1 4 3 -2 6 -13 5 -11 0 -14 -3 -6 -6z"/>
<path d="M110 1201 c0 -9 31 -31 44 -31 3 0 6 7 6 15 0 8 -4 15 -9 15 -5 0
-16 3 -25 6 -9 3 -16 1 -16 -5z"/>
<path d="M130 1156 c0 -8 5 -18 10 -21 6 -3 10 1 10 9 0 8 -4 18 -10 21 -5 3
-10 -1 -10 -9z"/>
<path d="M339 1137 c-11 -8 -17 -29 -17 -64 -1 -43 2 -53 22 -66 28 -19 80 -9
113 22 18 17 22 18 27 6 3 -8 12 -15 21 -15 20 0 31 28 16 43 -6 6 -11 20 -11
31 0 17 -4 15 -26 -12 -24 -29 -54 -36 -37 -9 4 7 9 23 11 36 3 20 1 22 -11
12 -12 -9 -22 -8 -51 9 -43 23 -37 23 -57 7z"/>
<path d="M28 933 c7 -3 16 -2 19 1 4 3 -2 6 -13 5 -11 0 -14 -3 -6 -6z"/>
<path d="M400 919 c0 -11 5 -17 10 -14 6 3 10 13 10 21 0 8 -4 14 -10 14 -5 0
-10 -9 -10 -21z"/>
<path d="M186 905 c8 -37 14 -45 14 -19 0 10 -5 26 -10 34 -8 11 -9 7 -4 -15z"/>
<path d="M564 581 c-60 -7 -104 -36 -104 -69 0 -13 -4 -31 -9 -41 -7 -12 -5
-26 5 -45 8 -16 14 -56 14 -90 0 -63 23 -166 60 -273 l22 -63 49 0 c49 0 49 0
43 28 -4 15 -13 36 -20 47 -24 38 -53 188 -50 250 5 74 14 97 71 184 25 37 45
71 45 75 0 7 -49 6 -126 -3z m-7 -27 c-3 -3 -12 -4 -19 -1 -8 3 -5 6 6 6 11 1
17 -2 13 -5z"/>
<path d="M0 280 l0 -280 131 0 130 0 -5 53 c-3 28 -8 88 -11 132 -10 163 -29
345 -37 357 -5 10 -12 7 -23 -10 -9 -12 -20 -20 -25 -17 -4 3 -13 -2 -20 -10
-18 -22 -40 -18 -66 10 -20 21 -21 25 -6 26 20 1 -23 16 -50 18 -17 1 -18 -19
-18 -279z m167 178 c-3 -8 -6 -5 -6 6 -1 11 2 17 5 13 3 -3 4 -12 1 -19z m-39
-41 c2 -28 -1 -47 -7 -47 -6 0 -11 18 -11 40 0 22 -5 40 -11 40 -5 0 -7 5 -4
11 14 22 30 0 33 -44z"/>
<path d="M1351 114 c0 -11 3 -14 6 -6 3 7 2 16 -1 19 -3 4 -6 -2 -5 -13z"/>
</g>
</svg>
